<svg xmlns="http://www.w3.org/2000/svg" viewBox="0 0 210 40" height="40" role="img" aria-label="AI Liget">
  <!-- Tree icon -->
  <g>
    <!-- trunk -->
    <path d="M18 20 L17 34 L23 34 L22 20 Z" fill="#2F4A30"/>
    <line x1="20" y1="21" x2="20" y2="33" stroke="#1F2A1F" stroke-width="0.3" opacity="0.45"/>

    <!-- canopy -->
    <ellipse cx="20" cy="13" rx="13" ry="12" fill="#3F5A40"/>
    <ellipse cx="14" cy="15" rx="5" ry="6" fill="#2F4A30" opacity="0.28"/>
    <ellipse cx="25" cy="10" rx="6" ry="5" fill="#547558"/>
    <ellipse cx="16" cy="7" rx="4" ry="3" fill="#6A8D73"/>
    <ellipse cx="22" cy="4" rx="2.5" ry="1.8" fill="#A3B9A3"/>

    <!-- grass -->
    <g fill="#3F5A40">
      <path d="M3 34 C 4 31 4.5 29 5 27 C 5.5 29 6 31 7 34 Z"/>
      <path d="M8 34 C 8.5 32 9 30.5 9.5 29 C 10 30.5 10.5 32 11 34 Z"/>
      <path d="M12 34 C 12.3 32.5 12.6 31 13 30 C 13.4 31 13.7 32.5 14 34 Z"/>
    </g>
    <g fill="#4A6650">
      <path d="M26 34 C 26.3 32.5 26.6 31 27 30 C 27.4 31 27.7 32.5 28 34 Z"/>
      <path d="M29 34 C 29.5 32 30 30.5 30.5 29 C 31 30.5 31.5 32 32 34 Z"/>
      <path d="M33 34 C 34 31 34.5 29 35 27 C 35.5 29 36 31 37 34 Z"/>
    </g>
  </g>

  <!-- Wordmark -->
  <text x="50" y="27" font-family="'Playfair Display', Georgia, serif" font-size="22" font-weight="700" fill="#3F5A40" letter-spacing="0.5">AI Liget</text>
</svg>
